<?xml version="1.0" encoding="utf-8"?>
<!-- Generator: Adobe Illustrator 25.2.1, SVG Export Plug-In . SVG Version: 6.00 Build 0)  -->
<svg version="1.1" id="Layer_1" xmlns="http://www.w3.org/2000/svg" xmlns:xlink="http://www.w3.org/1999/xlink" x="0px" y="0px"
	 viewBox="0 0 300 300" style="enable-background:new 0 0 300 300;" xml:space="preserve">
<style type="text/css">
	.st0{fill:#FFFFFF;}
	.st1{fill:none;stroke:#000000;stroke-width:25;stroke-linecap:round;stroke-miterlimit:10;}
</style>
<g>
	<path d="M660.2,204.2c-1.9,0-3.5-1.3-3.9-3.2c-2.1-10.2-11.2-17.7-21.6-17.7c-5.9,0-11.4,2.3-15.6,6.5c-1.6,1.6-4.1,1.6-5.7,0
		c-1.6-1.6-1.6-4.1,0-5.7c5.7-5.7,13.2-8.8,21.2-8.8c14.2,0,26.6,10.1,29.5,24.1c0.4,2.2-1,4.3-3.1,4.7
		C660.8,204.2,660.5,204.2,660.2,204.2z"/>
</g>
<g>
	<path d="M634.7,235.4c-14.2,0-26.6-10.1-29.5-24.1c-0.4-2.2,1-4.3,3.1-4.7s4.3,0.9,4.7,3.1c2.1,10.2,11.2,17.7,21.6,17.7
		c5.9,0,11.4-2.3,15.6-6.4c1.6-1.6,4.1-1.6,5.7,0c1.6,1.6,1.6,4.1,0,5.7C650.3,232.3,642.7,235.4,634.7,235.4z"/>
</g>
<g>
	<path d="M626.7,197.4h-17c-2.2,0-4-1.8-4-4v-17c0-2.2,1.8-4,4-4s4,1.8,4,4v13h13c2.2,0,4,1.8,4,4S628.9,197.4,626.7,197.4z"/>
</g>
<g>
	<path d="M659.8,238.4c-2.2,0-4-1.8-4-4v-13h-13c-2.2,0-4-1.8-4-4s1.8-4,4-4h17c2.2,0,4,1.8,4,4v17
		C663.8,236.6,662,238.4,659.8,238.4z"/>
</g>
<g>
	<path class="st0" d="M67.7,263.5c-6.9,0-12.5-5.7-12.5-12.8V45.1c0-7,5.6-12.8,12.5-12.8s12.5,5.7,12.5,12.8v205.6
		C80.2,257.8,74.6,263.5,67.7,263.5z"/>
</g>
<g>
	<path class="st0" d="M88,62.3c0,0,23.7-12.7,54-12.7S177.5,62,205.3,62s42.4-12.4,42.4-12.4v124.6c0,0-9.3,12.4-42.4,12.4
		s-37.8-12.4-63.3-12.4s-54,12.7-54,12.7V62.3z"/>
</g>
<line class="st1" x1="515.1" y1="-265.2" x2="515.1" y2="-63.8"/>
<path d="M535.5-252.5c0,0,23.7-12.7,54-12.7c30.3,0,35.4,12.4,63.3,12.4c27.8,0,42.4-12.4,42.4-12.4v124.6c0,0-9.3,12.4-42.4,12.4
	c-33.1,0-37.8-12.4-63.3-12.4c-25.5,0-54,12.7-54,12.7V-252.5z"/>
</svg>
