<?xml version="1.0" encoding="utf-8"?>
<!-- Generator: Adobe Illustrator 25.2.1, SVG Export Plug-In . SVG Version: 6.00 Build 0)  -->
<svg version="1.1" id="Layer_1" xmlns="http://www.w3.org/2000/svg" xmlns:xlink="http://www.w3.org/1999/xlink" x="0px" y="0px"
	 viewBox="0 0 300 300" style="enable-background:new 0 0 300 300;" xml:space="preserve">
<style type="text/css">
	.st0{fill:#FFFFFF;}
</style>
<g>
	<path class="st0" d="M94.2,34.8c-12.9,0-23.5,8.7-23.5,19.4V246c0,10.7,10.5,19.4,23.5,19.4c12.8,0,23.4-8.7,23.5-19.4v-192
		C117.6,43.4,107.1,34.8,94.2,34.8z"/>
	<path class="st0" d="M205.8,34.8c-12.9,0-23.5,8.7-23.5,19.4V246c0,10.7,10.5,19.4,23.5,19.4c12.9,0,23.5-8.7,23.5-19.4v-192
		C229.3,43.4,218.8,34.8,205.8,34.8z"/>
</g>
<g>
	<path d="M531.8,235.4c-0.6,0-1.1-0.1-1.7-0.4c-1.4-0.6-2.3-2.1-2.3-3.6v-52.1c0-1.6,0.9-3,2.3-3.6c1.4-0.6,3.1-0.4,4.3,0.6l29.6,26
		c0.9,0.8,1.4,1.9,1.4,3s-0.5,2.2-1.4,3l-29.6,26C533.7,235.1,532.7,235.4,531.8,235.4z M535.8,188.1v34.4l19.6-17.2L535.8,188.1z"
		/>
</g>
<g>
	<path d="M660.2,204.2c-1.9,0-3.5-1.3-3.9-3.2c-2.1-10.2-11.2-17.7-21.6-17.7c-5.9,0-11.4,2.3-15.6,6.5c-1.6,1.6-4.1,1.6-5.7,0
		c-1.6-1.6-1.6-4.1,0-5.7c5.7-5.7,13.2-8.8,21.2-8.8c14.2,0,26.6,10.1,29.5,24.1c0.4,2.2-1,4.3-3.1,4.7
		C660.8,204.2,660.5,204.2,660.2,204.2z"/>
</g>
<g>
	<path d="M634.7,235.4c-14.2,0-26.6-10.1-29.5-24.1c-0.4-2.2,1-4.3,3.1-4.7s4.3,0.9,4.7,3.1c2.1,10.2,11.2,17.7,21.6,17.7
		c5.9,0,11.4-2.3,15.6-6.4c1.6-1.6,4.1-1.6,5.7,0c1.6,1.6,1.6,4.1,0,5.7C650.3,232.3,642.7,235.4,634.7,235.4z"/>
</g>
<g>
	<path d="M626.7,197.4h-17c-2.2,0-4-1.8-4-4v-17c0-2.2,1.8-4,4-4s4,1.8,4,4v13h13c2.2,0,4,1.8,4,4S628.9,197.4,626.7,197.4z"/>
</g>
<g>
	<path d="M659.8,238.4c-2.2,0-4-1.8-4-4v-13h-13c-2.2,0-4-1.8-4-4s1.8-4,4-4h17c2.2,0,4,1.8,4,4v17
		C663.8,236.6,662,238.4,659.8,238.4z"/>
</g>
</svg>
