<?xml version="1.0" encoding="utf-8"?>
<!-- Generator: Adobe Illustrator 25.2.1, SVG Export Plug-In . SVG Version: 6.00 Build 0)  -->
<svg version="1.1" id="Layer_1" xmlns="http://www.w3.org/2000/svg" xmlns:xlink="http://www.w3.org/1999/xlink" x="0px" y="0px"
	 viewBox="0 0 300 300" style="enable-background:new 0 0 300 300;" xml:space="preserve">
<style type="text/css">
	.st0{fill:none;}
	.st1{fill:#FFFFFF;}
</style>
<g>
	<g>
		<line class="st0" x1="404.1" y1="-133" x2="404.1" y2="127"/>
		<path d="M404.1,147c-11,0-20-8.9-20-20v-260c0-11,8.9-20,20-20s20,8.9,20,20v260C424,138.1,415.1,147,404.1,147z"/>
	</g>
	<g>
		<line class="st0" x1="551.9" y1="-133" x2="551.9" y2="127"/>
		<path d="M551.9,147c-11,0-20-8.9-20-20v-260c0-11,8.9-20,20-20s20,8.9,20,20v260C571.9,138.1,563,147,551.9,147z"/>
	</g>
</g>
<path class="st1" d="M224.2,135.6L101,27.3c-5.6-5-13.7-6.2-20.4-3.1c-6.8,3.1-11.2,9.9-11.2,17.4v216.7c0,7.6,4.4,14.4,11.2,17.4
	c2.5,1.1,5.1,1.7,7.9,1.7c4.6,0,9.1-1.7,12.6-4.8l123.3-108.3c4.1-3.7,6.5-8.9,6.5-14.4S228.4,139.3,224.2,135.6z M182.6,149.9
	L107.5,216V84L182.6,149.9z"/>
<g>
	<path d="M660.2,204.2c-1.9,0-3.5-1.3-3.9-3.2c-2.1-10.2-11.2-17.7-21.6-17.7c-5.9,0-11.4,2.3-15.6,6.5c-1.6,1.6-4.1,1.6-5.7,0
		c-1.6-1.6-1.6-4.1,0-5.7c5.7-5.7,13.2-8.8,21.2-8.8c14.2,0,26.6,10.1,29.5,24.1c0.4,2.2-1,4.3-3.1,4.7
		C660.8,204.2,660.5,204.2,660.2,204.2z"/>
</g>
<g>
	<path d="M634.7,235.4c-14.2,0-26.6-10.1-29.5-24.1c-0.4-2.2,1-4.3,3.1-4.7s4.3,0.9,4.7,3.1c2.1,10.2,11.2,17.7,21.6,17.7
		c5.9,0,11.4-2.3,15.6-6.4c1.6-1.6,4.1-1.6,5.7,0c1.6,1.6,1.6,4.1,0,5.7C650.3,232.3,642.7,235.4,634.7,235.4z"/>
</g>
<g>
	<path d="M626.7,197.4h-17c-2.2,0-4-1.8-4-4v-17c0-2.2,1.8-4,4-4s4,1.8,4,4v13h13c2.2,0,4,1.8,4,4S628.9,197.4,626.7,197.4z"/>
</g>
<g>
	<path d="M659.8,238.4c-2.2,0-4-1.8-4-4v-13h-13c-2.2,0-4-1.8-4-4s1.8-4,4-4h17c2.2,0,4,1.8,4,4v17
		C663.8,236.6,662,238.4,659.8,238.4z"/>
</g>
</svg>
