<?xml version="1.0" encoding="utf-8"?>
<!-- Generator: Adobe Illustrator 25.2.1, SVG Export Plug-In . SVG Version: 6.00 Build 0)  -->
<svg version="1.1" id="Layer_1" xmlns="http://www.w3.org/2000/svg" xmlns:xlink="http://www.w3.org/1999/xlink" x="0px" y="0px"
	 viewBox="0 0 300 300" style="enable-background:new 0 0 300 300;" xml:space="preserve">
<style type="text/css">
	.st0{fill:none;}
	.st1{fill:#FFFFFF;}
</style>
<g>
	<g>
		<line class="st0" x1="404.1" y1="-133" x2="404.1" y2="127"/>
		<path d="M404.1,147c-11,0-20-8.9-20-20v-260c0-11,8.9-20,20-20s20,8.9,20,20v260C424,138.1,415.1,147,404.1,147z"/>
	</g>
	<g>
		<line class="st0" x1="551.9" y1="-133" x2="551.9" y2="127"/>
		<path d="M551.9,147c-11,0-20-8.9-20-20v-260c0-11,8.9-20,20-20s20,8.9,20,20v260C571.9,138.1,563,147,551.9,147z"/>
	</g>
</g>
<g>
	<path d="M754.1,147c-2.8,0-5.6-0.6-8.2-1.8c-7.2-3.2-11.7-10.4-11.7-18.2v-260c0-7.9,4.6-15,11.7-18.2c7.2-3.2,15.5-2,21.4,3.2
		L915.1-18c4.3,3.8,6.8,9.2,6.8,15s-2.5,11.2-6.8,15L767.2,142C763.5,145.3,758.8,147,754.1,147z M774-88.9V82.9L871.7-3L774-88.9z"
		/>
</g>
<g>
	<path class="st1" d="M53.2,126.2h64.4c9.7,0,17.7-7.9,17.7-17.7c0-9.7-7.9-17.7-17.7-17.7h-23c15.1-14.2,34.7-22,55.5-22
		c38.3,0,71.7,27.3,79.5,65c1.7,8.3,8.8,14.1,17.3,14.1c1.2,0,2.4-0.1,3.5-0.3c4.6-0.9,8.6-3.6,11.2-7.5c2.6-4,3.5-8.7,2.6-13.3
		c-11.1-54-59-93.2-114-93.2c-29.6,0-57.6,11-79.2,31.1V44.2c0-9.7-7.9-17.7-17.7-17.7c-9.7,0-17.7,7.9-17.7,17.7v64.4
		C35.5,118.3,43.4,126.2,53.2,126.2z"/>
	<path class="st1" d="M246.9,173.8h-64.4c-9.7,0-17.7,7.9-17.7,17.7s7.9,17.7,17.7,17.7h23c-15,14.1-34.6,21.9-55.4,21.9
		c-38.4,0-71.9-27.3-79.5-65c-1.9-9.5-11.3-15.7-20.9-13.8c-9.5,2-15.7,11.4-13.8,20.9c11.1,54,59.1,93.2,114.2,93.2
		c29.6,0,57.6-11,79.2-31.1v20.7c0,9.7,7.9,17.7,17.7,17.7s17.7-7.9,17.7-17.7v-64.4C264.6,181.7,256.6,173.8,246.9,173.8z"/>
</g>
</svg>
